<svg width="369" height="400" viewBox="0 0 369 400" fill="none" xmlns="http://www.w3.org/2000/svg">
<g clip-path="url(#clip0_106_165)">
<path d="M0 0H369V400H0V0Z" fill="#CAD5DB"/>
<path d="M182.845 30.3797H184.914L187.603 30.8861L190.498 32.1519L192.773 33.6709L195.049 35.9494L196.497 37.7215L198.358 41.2658L199.599 45.0633L200.013 47.8481V52.6582L199.806 54.4304L200.84 54.9367L204.563 57.4684L208.08 60L213.871 63.7975L216.974 66.0759L227.936 73.924L233.934 77.9747L238.278 81.0127L241.381 83.5443L242.001 83.7975L243.656 81.2658L246.345 78.9873L248.827 77.7215L250.688 77.2152L252.757 76.962H255.032L258.341 77.4684L260.823 78.481L263.926 80.5063L265.994 82.5316L267.856 85.0633L269.511 88.6076L270.338 91.6456L270.752 94.1772V99.4937L270.131 102.532L268.476 106.835L266.615 110.127L264.753 112.405L261.858 114.43L258.755 115.696L257.307 115.949V174.43L260.617 175.443L263.926 177.468L265.994 179.747L267.856 182.278L269.511 185.823L270.545 189.62L270.958 194.177L270.752 197.722L269.717 201.772L267.856 205.823L265.994 208.608L263.719 210.886L260.41 212.911L257.307 213.924L255.859 214.177H252.55L250.275 213.671L247.172 212.405L244.69 210.633L242.001 208.101L240.967 208.354L237.037 210.886L232.28 214.177L228.143 217.215L224.42 219.747L219.249 223.544L214.078 227.089L208.286 231.392L203.115 234.937L200.22 236.962H199.806L200.013 238.987V243.291L199.392 247.089L198.358 250.38L196.703 253.418L194.428 256.456L191.532 258.734L189.05 260L186.361 260.759L183.673 261.013L180.363 260.506L177.054 259.241L174.572 257.722L172.71 255.949L171.055 254.177L169.194 251.139L167.953 247.848L167.126 243.797V239.747L167.332 237.722L166.298 236.456L162.575 233.671L158.025 230.633L155.543 229.114L152.026 226.582L146.648 223.038L143.132 220.506L138.789 217.722L133.618 213.924L128.86 210.633L125.137 208.101L124.31 208.354L122.862 210.127L120.794 211.646L118.312 212.911L116.45 213.418L114.382 213.671H111.693L108.797 213.165L106.108 211.899L102.799 209.62L100.73 207.342L99.0756 205.063L97.8346 202.532L96.8004 198.987L96.3867 194.43L96.5936 190.886L97.4209 187.089L99.0756 183.038L101.144 179.747L103.419 177.468L105.901 175.949L109.211 174.684L109.418 174.43V116.203L106.108 114.684L103.833 113.165L101.971 111.392L99.903 108.861L98.2483 105.57L97.0072 101.519L96.5936 98.7342V94.6835L97.2141 90.8861L98.4551 87.3418L100.523 83.7975L102.592 81.2658L105.488 78.9873L108.177 77.7215L110.038 77.2152L113.761 76.962L116.864 77.4684L120.38 78.9873L122.655 80.5063L124.724 82.5316L125.551 83.2911L129.481 80.2532L138.375 74.1772L140.443 72.6582L146.442 68.3544L152.233 64.3038L154.715 62.5316L159.266 59.4937L164.643 55.9494L167.126 54.1772L167.332 53.1646L167.126 51.8987V47.5949L167.953 43.5443L169.608 39.4937L171.055 37.2152L173.331 34.4304L176.02 32.4051L179.743 30.8861L182.845 30.3797Z" fill="#131A33"/>
<path d="M159.68 165.063L160.921 165.316L163.816 167.342L166.092 168.861L169.401 171.139L172.917 173.671L175.813 175.696L179.122 177.722L180.777 178.987V222.025L177.468 223.038L174.572 224.81L172.09 227.089L170.435 229.62L169.815 230.38L165.264 227.342L162.162 225.316L157.818 222.278L151.82 218.228L142.926 211.899L137.134 207.848L132.17 204.557L128.033 201.772L128.861 197.722L129.067 196.456V191.646L128.447 187.848L128.654 186.835L134.032 183.291L138.789 180L148.097 173.418L153.474 169.62L156.991 167.089L159.68 165.063Z" fill="#CAD4DA"/>
<path d="M206.425 165.063L207.873 165.823L219.456 173.671L224.42 177.215L233.934 183.797L238.485 186.835L238.692 187.595L238.278 188.354L237.658 193.165V196.709L238.278 199.747L238.692 200.759L238.485 202.025L236.417 203.544L231.659 206.329L226.695 209.873L221.111 213.671L212.837 219.747L206.839 224.051L201.875 227.342L198.151 230.127H197.531L195.256 226.835L192.774 224.557L189.671 222.532L186.568 221.519L186.362 221.266L186.155 205.57V189.62L186.362 178.987L190.292 176.456L195.463 172.911L200.633 169.114L204.77 166.329L206.425 165.063Z" fill="#CAD4DA"/>
<path d="M169.608 61.0127L170.435 61.2658L171.676 63.5443L173.538 65.5696L177.054 67.8481L178.915 68.6076L180.57 69.1139L180.777 69.3671V111.899L177.468 113.924L174.572 115.949L171.469 118.228L166.712 121.772L164.437 123.291L161.748 125.823L161.127 126.582L159.679 125.063L154.302 121.266L149.338 117.975L144.167 114.177L134.652 107.595L129.067 104.051L128.24 103.291L128.861 101.013L129.067 99.2405V94.1772L128.447 90.3798L128.654 89.1139L132.997 86.076L138.996 82.0253L143.546 78.7342L148.924 74.9367L152.026 72.6582L157.611 68.8608L162.989 65.3165L167.539 62.2785L169.608 61.0127Z" fill="#CAD4DA"/>
<path d="M240.967 109.873L242.001 110.127L243.035 111.392L244.69 112.911L247.999 114.937L249.861 115.696L251.516 116.203V174.43L247.999 175.443L246.138 176.456L243.863 178.228L242.622 179.494L241.794 181.013L240.967 180.759L238.071 178.481L232.9 174.937L228.143 171.646L222.558 167.848L217.594 164.304L213.871 161.772L209.114 158.481L208.907 158.228V131.899L213.664 128.608L219.042 124.81L222.558 122.278L232.693 115.19L238.899 111.139L240.967 109.873Z" fill="#C9D4DA"/>
<path d="M125.137 109.873L125.965 110.127L130.929 113.418L135.479 116.456L140.65 120L146.028 123.797L151.82 127.595L155.336 130.127L158.438 132.405L158.232 147.342V158.481L157.197 159.241L153.267 161.772L148.717 164.81L144.787 167.595L142.926 168.861L140.443 170.633L138.168 172.152L132.377 176.203L127.826 179.494L125.758 181.013L123.483 178.481L121.001 176.709L117.484 175.19L115.623 174.684L115.416 174.43V165.823L115.623 115.949L117.278 115.19L120.38 114.177L122.655 112.658L125.137 109.873Z" fill="#CAD4DA"/>
<path d="M197.117 61.0127L198.772 62.0253L201.461 64.0506L207.252 67.8481L212.423 71.3924L216.767 74.4304L221.317 77.7215L226.281 81.2658L231.246 84.557L236.623 88.3544L238.485 89.8734L238.071 92.1519L237.658 94.6836V98.481L238.278 102.025L238.485 103.291L235.175 105.57L229.384 109.367L226.281 111.646L222.765 114.177L220.49 115.696L217.594 117.722L215.733 118.987L213.044 121.013L211.803 121.772H211.389V122.278L209.527 123.544L207.252 125.316L206.632 126.076L205.598 125.57L202.909 123.544L198.565 120.506L195.256 117.975L189.257 113.924L186.568 112.152L186.362 111.899V69.3671L188.016 68.6076L191.119 67.0886L194.015 65.0633L195.876 63.2911L197.117 61.0127Z" fill="#CAD5DA"/>
<path d="M368.793 308.861H369V400H300.536L300.95 399.24L302.812 398.987L304.053 399.24L305.501 398.228L306.121 398.987H308.189L308.603 398.734L309.017 397.722H309.637H310.051L310.258 398.987H311.499V397.215H310.465L310.051 397.468L310.258 396.456L310.671 395.949L313.36 396.203L312.947 394.43L313.567 393.924L315.222 393.671L315.842 393.418V392.911L318.118 391.646L318.738 391.392V390.38H319.152V389.873L320.393 388.608H321.22L321.634 387.848H322.875L323.909 386.582L324.323 385.57H324.53L325.357 384.81L325.15 384.304L325.771 384.051L327.012 384.557L326.805 382.785L329.287 381.266L329.494 380.506H329.907L330.114 379.747H330.528V379.24L331.976 378.228H332.39V377.722H332.803V377.215H333.217V376.709L332.596 376.456L333.837 375.696L334.458 373.165H335.492H335.906L336.94 370.886L338.181 370.633L338.595 369.114L339.422 368.101H339.836L340.249 367.089L341.284 366.329H341.697V365.063L342.318 364.304H343.145L343.352 363.797H343.972L344.386 362.532L344.8 361.772H346.248L346.868 361.519L347.075 360.506L346.661 360.253L346.868 359.24L347.282 358.987V359.494H347.696L347.902 360.253H348.523L349.143 357.975L349.557 357.468V357.975L350.591 357.468L351.419 356.456L352.039 356.709V355.949H352.453L352.66 354.937L353.28 354.177V353.671L354.314 353.418V352.911H354.935L355.142 350.633H355.555L356.176 348.101L356.59 347.848L356.383 346.076L355.969 344.81L356.59 343.544L357.003 342.532H356.59L356.383 341.772H356.796L356.59 340.759L357.831 340V339.24L358.244 337.468V336.456L358.865 335.19L358.658 333.924V332.911L360.933 333.165L360.106 331.646L360.313 330.38L360.933 329.114L361.347 328.861V328.101L360.52 327.848L361.347 327.342L361.14 326.329L361.967 325.57H362.381L362.174 324.051L362.588 323.797V322.785L363.002 321.266L363.415 321.013V320L364.036 319.747L363.622 317.468L363.829 316.962H364.449V315.696L365.484 315.949L366.104 313.671L366.725 313.418V312.152L366.518 311.139L368.173 310.633L368.379 309.367L368.793 308.861Z" fill="#C8D3D9"/>
<path d="M182.225 120H183.673L184.914 121.013L185.121 124.557L185.534 126.329L187.189 127.848L190.292 129.873L193.808 131.899L196.083 133.418L198.358 135.19L199.186 136.709V154.177L198.772 155.949L197.324 157.468L195.049 159.241L191.946 162.025L190.292 163.291H189.878V163.797L188.016 165.063L184.914 167.595L183.88 167.848L180.777 165.823L178.502 163.797L176.227 162.278L173.538 160.506L169.815 157.975L168.574 156.203L168.367 155.19V136.709L168.987 135.443L170.435 133.924L174.572 131.392L177.674 129.114L181.191 126.582L181.398 126.329L181.811 120.759L182.225 120Z" fill="#F7F9F9"/>
<path d="M183.466 292.405H186.775L189.257 293.165L192.153 294.937L194.221 296.962L196.083 300L197.324 303.038L197.738 305.063V309.114L196.91 312.911L195.463 315.949L192.98 318.987L190.292 321.013L187.189 322.278L186.362 322.532L183.052 322.278L180.156 321.013L177.881 319.494L175.813 317.468L173.951 314.43L172.917 311.899L172.503 309.114V304.81L173.331 301.519L174.365 298.987L175.813 296.709L178.088 294.684L180.57 293.165L183.466 292.405Z" fill="#121A33"/>
<path d="M128.86 292.405H132.584L135.272 293.418L137.548 295.19L138.996 296.709L140.857 300L141.684 302.025L142.098 304.304V309.62L141.891 309.873H132.584L125.137 309.62L125.965 311.646L127.413 313.671L129.481 314.937L131.136 315.443H132.584L135.272 314.43L136.514 313.418L137.134 312.658L137.961 312.911L140.443 315.696L141.684 316.962L141.478 317.722L138.375 320L135.479 321.772L132.997 322.532H130.515L127.206 321.519L124.31 319.747L122.242 317.722L120.173 314.177L118.932 309.873L118.519 307.848V305.57L119.139 302.025L120.38 298.987L122.655 295.949L123.896 294.684L126.378 293.165L128.86 292.405Z" fill="#121A33"/>
<path d="M262.065 292.405H264.133L267.029 293.165L269.511 294.684L271.993 297.468L273.441 300L274.475 303.544L274.889 309.62L273.854 309.873H257.1L258.135 312.152L258.962 313.418L261.237 315.19L262.685 315.696H264.34L266.201 315.19L268.063 313.671L268.89 312.658L269.924 313.165L272.2 315.19L273.854 316.962V317.722L269.924 320.253L267.029 321.772L264.753 322.532H261.651L258.962 321.519L256.273 319.747L253.791 316.962L252.136 314.177L251.102 311.392L250.895 310.127V305.316L251.516 302.278L252.757 299.494L254.618 296.962L256.066 295.19L258.548 293.418L260.617 292.658L262.065 292.405Z" fill="#121A33"/>
<path d="M158.438 283.544H161.127L163.816 284.051L166.091 285.063L169.194 287.089L171.676 289.367L172.09 290.38L170.228 291.899L168.16 295.19L167.332 294.684L165.057 292.911L162.989 291.646L160.507 290.886H158.645L156.163 291.646L154.302 292.911L152.44 294.937L151.199 297.975L150.785 300.506V304.557L151.613 307.848L152.854 310.633L154.715 312.658L156.37 313.671L158.438 314.43H161.334L164.023 313.418L166.298 311.392L166.919 310.127L168.16 310.633L170.849 313.671L172.09 315.19L171.883 315.949L168.367 318.987L165.057 321.013L162.575 322.025L161.541 322.278H157.404L154.095 321.266L150.578 319.241L148.096 316.456L146.649 313.924L145.201 310.127L144.373 306.582L144.167 305.063V299.241L144.994 295.19L146.442 291.646L148.096 289.114L150.578 286.582L153.474 284.81L156.577 283.797L158.438 283.544Z" fill="#121A33"/>
<path d="M103.833 292.405H107.556L110.245 293.418L112.313 294.937L114.382 297.215L115.83 300L116.657 302.278L116.864 303.544V309.873H105.695L102.178 309.62L100.317 309.367L100.937 311.139L102.592 313.418L104.247 314.684L105.488 315.19H108.177L111.486 313.418L112.52 312.911L115.209 315.443L116.657 316.962L116.036 317.722L112.934 320L110.245 321.519L108.177 322.278H104.66L101.971 321.266L99.2825 319.494L97.2142 317.215L95.7663 314.684L94.9389 312.658L94.1116 308.861V303.797L94.9389 300.506L95.9731 298.228L97.8347 295.696L100.11 293.924L101.971 292.911L103.833 292.405Z" fill="#070A1C"/>
<path d="M183.673 132.152L185.327 132.911L188.43 135.19L194.428 138.734L194.635 138.987L194.221 153.924L192.153 154.937L188.223 157.468L184.086 160.506L183.466 160.759L177.054 156.709L175.606 155.696L173.124 153.924L173.331 139.241L175.399 137.468L177.674 135.696H178.295V135.19L181.811 133.165L182.638 132.405L183.673 132.152Z" fill="#131B33"/>
<path d="M75.496 283.797L76.5302 284.051V291.392H60.6036L60.8105 300L74.6687 300.506L74.8755 300.759L75.0823 307.342H68.4635L62.2584 307.089L60.6036 306.835V320.253L60.19 321.519L59.7763 321.772H54.8122L54.1917 321.266V285.063L54.3985 284.051H66.1883L75.496 283.797Z" fill="#131B34"/>
<path d="M211.596 292.405H214.905L216.974 293.418L218.835 294.937L220.49 296.709L221.731 298.987L222.352 301.266L222.558 302.785V319.747L222.352 322.278H215.94V302.785L215.319 301.266L213.871 300L213.251 299.747H210.148L208.286 301.266L207.045 303.038L206.632 304.051L206.425 322.025L201.461 322.278L200.013 322.025V292.658L205.598 292.911L205.804 293.165L205.598 296.456L206.839 295.443L208.493 293.671L210.562 292.658L211.596 292.405Z" fill="#121A33"/>
<path d="M237.657 292.405H240.553L242.828 293.418L244.69 294.937L246.345 296.962L247.586 299.494L248.413 302.025L248.62 303.544V308.608L248.206 322.025L247.999 322.278H242.001V303.038L241.381 301.519L240.346 300.506L239.105 299.747L238.278 299.494H236.83L234.969 300.253L233.521 301.519L232.486 303.797L232.28 307.342L232.486 322.278L226.074 322.025V292.911L230.625 293.165L232.073 293.418V294.684L231.452 296.203L233.727 294.43L235.382 293.165L237.657 292.405Z" fill="#121A33"/>
<path d="M287.092 292.152H289.16L291.642 292.911L293.711 294.177L295.779 295.949L296.813 297.215L296.607 298.228L295.159 299.494L294.124 301.013L293.711 302.278L292.677 301.519L290.815 300L288.953 299.241H287.299L285.437 300L283.576 301.772L282.541 303.797L282.128 305.823L282.335 309.114L283.162 311.139L284.196 312.658L286.058 314.177L287.299 314.684L289.988 314.43L291.849 313.165L292.883 311.899L293.711 312.152L295.779 314.684L297.848 316.456L298.054 317.215L293.711 320.253L290.608 321.772L289.574 322.025H285.644L282.955 321.013L280.059 318.734L278.405 316.709L277.164 314.177L275.923 309.873L275.716 308.101V306.076L276.336 302.278L277.991 298.481L279.853 295.949L281.921 294.177L284.196 292.911L287.092 292.152Z" fill="#121A33"/>
<path d="M307.155 284.557L307.569 284.81V293.165H312.74L313.36 293.418V297.215L313.154 299.24L312.947 299.494H307.776V312.911L308.603 314.177L309.637 314.684H311.292L313.981 314.43L314.395 315.696L314.601 318.734L314.188 320L312.119 321.266L310.465 321.772H307.569L305.707 320.759L303.639 318.987L301.984 316.203L301.157 313.165V301.266L301.364 299.494L298.261 299.24V293.165L298.675 292.658H301.571V285.316L304.26 284.81L307.155 284.557Z" fill="#121A33"/>
<path d="M157.404 84.557H159.473L161.541 85.3164L163.403 86.5823L164.85 88.1013L166.298 90.8861L166.919 92.6582L167.126 93.924V97.2152L166.298 100.253L165.264 102.278L164.437 103.544L162.575 105.063L160.507 106.076H157.197L154.922 105.063L152.854 103.291L151.199 101.013L150.165 97.9747L149.958 96.4557V93.4177L150.785 90.3797L152.233 87.8481L154.302 85.8228L156.37 84.8101L157.404 84.557Z" fill="#121A33"/>
<path d="M229.798 134.684H232.9L235.175 135.696L236.416 136.709L237.658 137.975L238.899 140.253L239.726 142.532L239.933 146.076L239.312 149.114L238.278 151.646L236.623 153.924L233.314 155.949L232.487 156.203H230.211L227.729 155.19L225.454 153.165L223.799 150.38L222.972 147.848L222.765 146.329V143.291L223.179 141.266L224.006 139.241L225.04 137.722L227.729 135.443L229.798 134.684Z" fill="#121A33"/>
<path d="M133.824 134.937H137.548L140.03 136.203L141.684 137.975L143.132 140.76L143.96 143.291V147.342L143.132 150.38L141.684 152.911L140.236 154.43L138.168 155.696L136.72 156.203H134.859L132.17 155.19L130.308 153.671L128.86 151.899L127.206 147.848L126.999 146.835V143.038L128.033 139.747L129.895 137.215L131.963 135.696L133.824 134.937Z" fill="#121A33"/>
<path d="M206.839 84.557H208.493L211.182 85.5696L213.044 87.0886L214.492 89.1139L215.733 92.1519L216.146 94.1772L215.939 97.4683L215.319 100L214.285 102.025L213.251 103.544L210.975 105.316L208.907 106.076L206.218 105.823L203.943 104.81L201.668 102.785L200.22 100.253L199.186 97.2152V92.6582L200.633 89.1139L202.288 86.8354L204.357 85.3164L206.839 84.557Z" fill="#16203E"/>
<path d="M208.493 184.81L210.975 185.316L213.871 187.089L215.319 188.861L216.56 191.392L216.974 192.911V197.215L215.94 200.506L214.492 202.785L213.044 204.304L210.975 205.57L210.148 205.823H207.252L204.77 204.81L202.702 203.038L201.254 201.013L200.22 198.481L200.013 197.721V192.911L200.84 190.38L202.081 188.354L203.529 186.835L206.011 185.316L208.493 184.81Z" fill="#121A33"/>
<path d="M156.577 185.063H160.3L162.575 186.076L164.437 187.595L165.678 189.367L166.712 191.899L166.919 193.165V196.962L166.091 200L164.437 202.785L162.161 204.81L159.886 205.823H156.784L154.302 204.557L152.647 203.038V202.532H152.233L150.785 200L149.958 197.215V193.418L150.579 190.886L152.026 188.354L154.095 186.329L156.577 185.063Z" fill="#121A33"/>
<path d="M91.0091 292.152L92.6638 292.405L93.0774 292.658V298.228L92.8706 300.253L89.1475 300L87.9065 300.506L86.4586 302.532L85.2176 304.81L85.0107 305.57L84.5971 321.772H78.5987L78.3919 321.266V294.684L78.1851 292.658L84.1834 292.911L84.3902 293.671L84.1834 297.215L85.2176 296.709L86.4586 294.684L88.527 292.911L91.0091 292.152Z" fill="#131B34"/>
<path d="M253.584 184.81L256.066 185.063L258.341 186.076L260.41 188.354L261.237 189.62L262.064 192.405V196.456L261.237 199.24L259.996 201.519L257.721 203.544L256.066 204.304L254.205 204.557L252.136 203.797L249.861 201.772L248.413 200L247.172 197.468L246.552 195.696V191.899L247.586 188.861L249.24 186.582L250.895 185.57L252.136 185.063L253.584 184.81Z" fill="#FAFCFC"/>
<path d="M252.757 87.3418H255.446L257.721 88.3544L259.789 89.8734L261.03 92.1519L261.858 94.4304L262.064 95.6962V98.2278L261.237 101.266L259.996 103.291L258.134 105.063L255.859 106.076H252.757L250.275 104.557L248.413 102.532L247.172 100L246.758 97.9747V94.1772L247.792 91.6456L249.24 89.3671L251.309 87.8481L252.757 87.3418Z" fill="#F9FBFB"/>
<path d="M111.9 184.557H113.554L115.623 185.316L117.898 187.342L119.346 189.873L119.966 191.646L120.173 193.165V195.443L119.553 197.975L118.518 200.253L117.484 201.772L115.209 203.544L114.175 204.051H111.9L109.831 203.038L107.763 201.266L106.315 198.987L105.488 196.962L105.281 195.696V191.899L106.108 189.367L107.556 187.089L109.004 185.57L110.865 184.81L111.9 184.557Z" fill="#FD8309"/>
<path d="M182.225 231.899H184.707L186.982 232.658L188.637 234.177L190.291 236.962L191.119 239.747V242.785L190.498 245.823L189.257 248.101L187.396 249.873L185.534 250.886L183.259 251.139L181.19 250.38L178.915 248.354L177.467 246.076L176.226 243.038L176.02 242.025V238.734L177.054 236.203L178.088 234.684L180.777 232.405L182.225 231.899Z" fill="#FBFDFD"/>
<path d="M181.397 41.2658H185.12L187.396 42.2785L188.844 43.7975L190.291 46.5823L191.119 49.3671V52.4051L190.291 55.443L188.43 57.9747L186.568 59.4937L185.12 60H183.052L181.191 58.9873L178.915 57.2152L178.295 56.4557V55.9494L177.674 55.6962L176.433 53.1646L175.813 50.8861V48.3544L177.261 44.8101L178.502 43.038L180.156 41.7722L181.397 41.2658Z" fill="#FAFCFC"/>
<path d="M110.659 87.3418H113.554L116.036 88.3544L117.898 90.1266L119.346 92.1519L120.173 94.6835V98.481L119.346 101.772L118.105 103.797L116.036 105.316L114.588 106.076L113.554 106.329H112.106L109.624 105.316L107.97 103.544L106.729 101.519L105.488 98.481L105.281 97.4683V94.1772L106.315 91.1392L107.349 89.8734L108.797 88.3544L110.659 87.3418Z" fill="#F9FBFC"/>
<path d="M104.867 293.418H107.142L108.59 293.671L110.452 294.937L111.486 295.696L112.52 296.709L113.968 299.24L115.209 301.772L115.623 303.544L115.83 306.582L115.623 307.342L115.83 308.608H116.657L116.864 309.873H105.695L102.178 309.62L100.11 309.367L100.317 308.101L102.799 308.354H110.452V307.848L110.866 307.595L111.486 304.81L103.212 304.557L100.317 304.304L100.11 303.544V302.278L99.9031 301.266L101.144 298.987L102.799 297.721L103.006 297.215H101.558V295.949H102.178V295.443H102.592V294.937L104.867 293.418Z" fill="#121A33"/>
<path d="M183.88 298.987H185.534L187.189 299.494L189.05 300.76L190.498 302.785L191.119 304.81V308.608L190.705 310.886L189.464 313.165L187.809 314.684L185.948 315.443L183.88 315.19L181.397 313.671L180.363 312.658L179.122 310.38L178.502 307.848V305.316L179.122 303.038L180.777 300.76L182.432 299.494L183.88 298.987Z" fill="#C8D3D9"/>
<path d="M275.509 137.975H279.025L281.094 139.24L282.541 141.013L283.369 143.038L283.576 143.797V146.835L282.541 149.873L281.094 151.899L279.853 152.911L278.405 153.418H276.75L274.888 152.911L273.027 151.392L271.579 149.367L271.165 148.101V143.544L271.993 141.266L273.234 139.494L275.095 138.228L275.509 137.975Z" fill="#131B34"/>
<path d="M97.0073 307.595H98.2483L98.8688 308.354L99.4893 309.873V310.38H99.903L100.524 312.152L101.144 312.911L101.351 313.671L102.799 314.43L104.453 315.443L105.694 315.696V315.443L108.177 315.19L111.486 313.418L112.52 312.911L115.209 315.443L116.657 316.962L116.036 317.722L112.934 320L110.245 321.519L108.177 322.278H104.66L101.971 321.266L99.2825 319.494L97.2141 317.215L95.7662 314.684L94.9389 312.658L94.3184 309.62L94.5252 308.101H94.732L95.1457 309.873L95.5594 308.608H96.1799V308.101L97.0073 307.595Z" fill="#121A33"/>
<path d="M89.1474 138.481H90.8021L92.8705 139.241L94.1115 140.253L95.5594 142.278L96.1799 144.557V146.582L95.3525 149.367L94.3183 151.139L92.8705 152.405L91.6294 152.911H89.1474L87.2858 151.899L85.838 150.38L84.8038 148.101L84.5969 147.089V144.051L85.4243 141.519L86.6653 139.747L88.1132 138.734L89.1474 138.481Z" fill="#131B34"/>
<path d="M253.584 184.81L256.066 185.063L258.341 186.076L260.41 188.354L261.237 189.62L262.064 192.405V196.456L261.237 199.24L259.996 201.519L257.721 203.544L256.066 204.304L254.205 204.557L252.136 203.797L249.861 201.772L248.413 200V199.747L249.861 199.494L250.275 198.481L250.895 197.975L253.791 196.962L255.859 195.696L257.721 191.139V187.089L257.307 186.329L255.652 185.57H251.516L252.136 185.063L253.584 184.81Z" fill="#9FB9CE"/>
<path d="M187.396 233.165L188.43 233.924L190.085 236.456L190.912 238.734L191.119 239.747V242.785L190.498 245.823L189.257 248.101L187.396 249.873L185.534 250.886L183.259 251.139L181.19 250.38L178.915 248.354L177.467 246.076L176.226 243.038L176.02 242.025V238.734L176.433 237.468L176.64 238.228L176.433 239.24V241.772L177.054 244.557H177.467L177.881 245.316L179.743 244.81L182.638 243.797L184.707 242.278L186.155 240.253L187.396 237.215L187.809 234.43V233.671H187.396V233.165Z" fill="#9FBACF"/>
<path d="M257.514 88.3544L259.583 89.6203L260.824 91.6456L261.858 94.4304L262.065 95.6962V98.2279L261.237 101.266L259.996 103.291L258.135 105.063L255.859 106.076H252.757L250.275 104.557L248.413 102.532L247.793 101.266L248 100.506L248.62 100.76L250.275 100L253.171 99.4937L254.825 98.481L255.859 97.4684L257.307 94.9367L258.341 92.4051L258.548 90.1266L257.514 88.8608V88.3544Z" fill="#9FBACE"/>
<path d="M117.484 89.8734L118.725 91.1392L119.759 93.1646L120.173 94.6835V98.481L119.346 101.772L118.105 103.797L116.036 105.316L114.589 106.076L113.554 106.329H112.106L109.624 105.316L107.97 103.544L106.729 101.519L106.108 100L106.936 100.506L108.177 100.759L110.865 99.4937L112.934 97.9747L114.382 96.4557L115.83 93.924L117.277 90.8861L117.484 89.8734Z" fill="#9EBACE"/>
<path d="M186.362 42.0253L187.396 42.2785L188.844 43.7975L190.292 46.5823L191.119 49.3671V52.4051L190.292 55.443L188.43 57.9747L186.568 59.4937L185.121 60H183.052L181.191 58.9873L178.915 57.2152L178.502 56.2025L179.122 55.6962L179.95 55.443V54.9367L183.259 52.9114L184.5 51.8987L185.741 50.1266L186.775 47.3418L186.982 46.3291V43.038L186.775 42.2785L186.362 42.0253Z" fill="#9EBACE"/>
<path d="M91.009 292.152L92.6637 292.405L93.0774 292.658V298.228L92.8705 300.253L89.1475 300L87.9064 300.506L86.4585 302.532L85.2175 304.81L84.597 306.582L83.9765 306.076L83.7696 303.544L84.3902 301.013L83.1491 298.228V297.722H82.7355L82.1149 296.456H81.0807L80.2534 298.734L79.426 297.722L79.0124 296.203L78.8055 293.418H78.3918V292.911H84.1833L84.3902 293.671L84.1833 297.215L85.2175 296.709L86.4585 294.684L88.5269 292.911L91.009 292.152Z" fill="#070A1C"/>
<path d="M139.409 236.962H141.891L143.546 238.228L144.58 239.747L145.201 241.772L144.994 244.051L143.96 246.582L142.925 248.101L141.478 249.114L139.616 249.367L137.961 248.608L136.927 247.595L135.686 245.063V242.025L136.307 240L137.754 237.975L139.409 236.962Z" fill="#121A33"/>
<path d="M225.454 236.962H227.729L229.798 238.228L231.039 240.253L231.452 241.772V243.544L230.625 246.076L229.384 248.101L228.35 248.861L227.522 249.114H225.661L224.006 248.101L222.765 246.329L222.145 244.557V241.266L222.972 238.987L224.42 237.468L225.454 236.962Z" fill="#131B34"/>
<path d="M138.582 43.7975H141.271L143.339 45.3164L144.167 46.5823L144.787 48.6076V50.3797L143.96 52.9114L142.305 55.1899L140.443 55.9494L138.789 55.6962L136.927 54.4304L135.686 52.405L135.272 50.8861V48.6076L136.1 46.3291L137.341 44.5569L138.582 43.7975Z" fill="#121A33"/>
<path d="M226.488 43.5443L228.35 43.7975L230.004 45.0633L231.039 46.5823L231.452 48.1013V50.6329L230.625 53.1646L229.798 54.4304L228.143 55.6962L227.522 55.9494H226.074L224.006 54.6836L222.558 52.6582L222.145 51.1392V48.6076L223.179 46.076L224.833 44.3038L226.488 43.5443Z" fill="#121A33"/>
<path d="M75.496 283.797L76.5302 284.051V291.392L67.843 291.139L66.602 290.886L65.7746 290.38L65.5678 289.873H68.8772L70.3251 290.127L73.4276 289.62L74.4618 288.354V286.835L73.4276 286.582L71.5661 286.329L67.2225 286.835H64.7404L62.2584 287.089H57.9147L56.4669 287.595L55.8464 290.127L55.019 290.633L54.8122 290.38L54.3985 287.848L54.1917 285.063L54.3985 284.051H66.1883L75.496 283.797Z" fill="#070B1C"/>
<path d="M307.155 284.557L307.569 284.81V293.165H312.74L313.36 293.418L313.154 295.19L312.533 296.203H312.119L311.913 296.962H311.499L311.292 295.696L307.776 294.937V294.177L305.914 293.418V292.911H305.501L304.88 291.392L304.26 290.886L302.605 292.658H302.191L301.777 293.924L300.95 295.443L300.743 297.722L300.33 298.481L299.502 298.987H298.468L298.261 297.975V293.165L298.675 292.658H301.571V285.316L304.26 284.81L307.155 284.557Z" fill="#070B1C"/>
<path d="M266.822 300L267.649 300.253L269.097 301.013L270.131 303.038L270.338 305.316L269.304 307.089L268.89 308.354L266.201 309.114L262.892 309.367L262.271 309.114V309.62H257.307H256.687L255.859 309.114L256.273 308.861V305.57L256.066 304.81L256.273 304.304H268.27L267.649 301.772L266.822 300Z" fill="#070A1B"/>
<path d="M157.197 90.1266H159.472L160.92 91.1392L162.161 92.9114L162.575 94.1772L162.368 96.4557L161.541 98.481L159.886 100.253L158.438 100.506L156.37 99.7468L154.922 97.7215L154.302 95.9494V93.6709L155.129 92.1519L156.784 90.3797L157.197 90.1266Z" fill="#FD8309"/>
<path d="M206.839 89.6203L208.7 89.8734L210.769 91.3924L212.01 93.4177L212.216 94.1772V96.4557L210.975 98.481L209.114 99.7468L207.252 100L205.184 98.7342L204.15 97.2152L203.943 96.7089V94.1772L204.977 91.6456L206.425 89.8734L206.839 89.6203Z" fill="#64B9FA"/>
<path d="M134.445 140.253H136.1L137.755 141.266L138.996 143.291L139.409 145.57L138.996 147.342L137.548 149.367L135.893 150.38L134.445 150.127L132.79 148.608L131.549 146.835L131.136 145.823V143.797L132.377 141.519L134.445 140.253Z" fill="#FD8309"/>
<path d="M262.064 292.405H264.133L267.029 293.165L269.511 294.684L271.993 297.468L273.441 300L274.475 303.544L274.682 305.823V308.354L273.027 308.608L272.82 308.354V306.329L272.2 306.076L272.406 304.304L272.82 303.038L272.406 301.266L271.165 299.241L270.752 297.722L269.924 297.215L268.476 296.203L267.856 295.949L267.235 295.19L264.96 294.937L262.478 294.684L259.582 295.443L258.341 295.696L258.135 296.456L257.307 296.962L253.791 301.266L253.17 302.278L252.136 301.772L252.55 300L253.791 297.975L256.066 295.19L258.548 293.418L260.617 292.658L262.064 292.405Z" fill="#070A1C"/>
<path d="M157.404 190.38H159.266L160.714 191.139L162.161 192.911L162.575 193.924V195.949L161.127 197.975L159.472 199.747L158.438 200.253L156.99 200L154.922 197.722L154.302 195.949V193.924L155.336 191.899L156.37 190.886L157.404 190.38Z" fill="#64B9FA"/>
<path d="M230.418 140L232.28 140.253L234.141 141.772L234.969 143.544L235.176 145.823L234.555 147.595L233.314 149.367L232.28 150.127H230.832L229.177 148.861L227.523 146.582L227.109 144.557L227.523 142.785L228.764 141.013L230.418 140Z" fill="#FD8309"/>
<path d="M206.839 190.127H209.114L210.562 191.139L212.01 193.165L212.217 193.924V195.949L211.389 197.975L209.734 199.747L209.321 200H207.873L205.805 198.734L204.77 196.709L204.563 195.949V193.165L205.184 191.646L206.425 190.38L206.839 190.127Z" fill="#FD8309"/>
<path d="M287.092 292.152H289.16L291.642 292.911L293.711 294.177L295.779 295.949L296.813 297.215L296.606 298.228L295.159 299.494L294.124 301.013L293.711 302.279L292.677 301.519L290.815 300L289.781 299.241L290.401 298.734H291.229L291.849 298.481V297.975L293.09 297.722L293.297 296.709L292.47 296.203L291.849 295.949V295.443H291.435V294.937L290.194 294.684L289.781 294.43V293.924L286.885 294.177L285.437 294.43L283.369 295.443L281.3 297.215H280.887V297.722H280.473L280.059 298.734H279.646V299.494H279.232V300H278.818L278.405 301.266H277.991V301.772L276.957 301.266L277.37 299.747L279.025 296.962L280.887 294.937L284.196 292.911L287.092 292.152Z" fill="#080B1D"/>
<path d="M262.478 298.481H264.133L265.994 299.241L267.235 300.506L268.27 303.038V304.304L267.856 304.557H257.928L257.1 304.304L257.307 302.532L258.341 301.013L260.41 299.241L262.478 298.481Z" fill="#C6CFD4"/>
<path d="M130.308 298.481L132.377 298.734L133.618 299.494L135.066 300.759L135.893 302.532L136.1 304.051L135.686 304.557H125.551L124.517 304.304L124.931 302.785L126.792 300.253L128.654 298.987L130.308 298.481Z" fill="#C8D3D9"/>
<path d="M105.074 298.481H106.522L108.59 299.494L109.624 300.506L110.659 302.785L110.865 304.557H103.212L100.317 304.304L100.11 303.544L100.937 301.519L102.385 299.747L104.247 298.734L105.074 298.481Z" fill="#C7D2D7"/>
<path d="M158.438 283.544H161.127L163.816 284.051L166.091 285.063L169.194 287.089L171.676 289.367L172.09 290.38L170.228 291.899L169.815 292.658H169.401L169.608 291.392L170.021 290.886L169.608 289.114L168.78 288.608L166.505 286.582L164.85 285.57L162.368 285.063L159.473 285.316L155.956 286.076L153.888 286.835L151.82 288.101H151.406L151.199 288.861L150.165 289.114V289.62H149.751V290.127L149.338 290.38L148.51 292.405L147.89 292.658V293.418L147.269 293.924H146.649V293.418L145.821 293.671L146.028 292.658L147.476 289.873L149.751 287.342L152.44 285.316L155.543 284.051L158.438 283.544Z" fill="#080B1D"/>
<path d="M183.466 292.405H186.775L189.257 293.165L192.153 294.937L194.222 296.962L195.049 298.228L194.842 298.734L194.222 298.481V297.975L193.394 298.228L191.326 295.949L190.498 295.443L188.637 294.937L188.43 294.684H182.845L181.398 294.937L180.157 295.696H179.536L179.329 296.203L178.088 296.962L177.261 297.215V297.722L175.813 299.241L175.399 300.253H174.779V299.747H174.365L174.158 300.253L174.365 298.987L175.813 296.709L178.088 294.684L180.57 293.165L183.466 292.405Z" fill="#070B1C"/>
<path d="M124.103 304.557H136.307V305.063L135.065 305.823L134.445 306.582L134.031 307.595L133.411 308.354L131.549 308.608H127.826L126.378 307.848H125.758L125.344 307.089L124.724 306.835L124.103 305.316V304.557Z" fill="#070A1C"/>
<path d="M292.883 311.899L293.711 312.152L295.779 314.684L297.848 316.456L298.054 317.215L293.711 320.253L292.677 320.759L291.849 320.506L291.642 320.253V318.481H292.056V316.709L290.815 315.443L289.574 314.937L290.401 314.177L292.056 312.911L292.883 311.899Z" fill="#070B1C"/>
<path d="M237.657 292.405H240.553L242.828 293.418L244.69 294.937L246.345 296.962L247.586 299.494L247.793 300.759L247.586 301.266L246.758 300.759V300.253L246.345 300L245.931 298.987L245.311 298.228V297.722L244.69 297.468L243.656 296.203L242.622 295.19L240.967 294.684L237.244 295.19L235.796 295.696L232.693 296.962H231.659L231.866 295.949L234.969 293.418L237.657 292.405Z" fill="#070A1C"/>
<path d="M257.514 309.62H259.996L262.478 309.873L271.165 310.127L272.406 310.38L271.786 310.886L270.752 311.392L270.338 311.899L267.442 312.405H265.788L264.34 311.899H261.651L261.03 312.152L260.41 313.165H258.755L257.514 311.392L257.1 310.633V309.873L257.514 309.62Z" fill="#C8D3D9"/>
<path d="M100.523 309.62L111.693 310.127L112.934 310.38L112.727 311.392L111.693 311.899H105.488L104.453 313.165H103.212L102.178 312.658L101.558 312.405L100.523 310.633V309.62Z" fill="#C8D3D9"/>
<path d="M176.433 237.468L176.64 238.228L176.433 239.241V241.772L177.054 244.557H177.467L177.881 245.316L179.743 244.81L181.397 244.304L182.225 244.557L180.777 244.81L180.984 245.823H181.397V246.582H182.018L182.225 248.861L183.052 249.62L184.293 249.873L185.741 249.367L186.568 249.873L186.155 250.633L184.5 251.139L182.225 250.886L180.156 249.62L178.502 247.848L177.054 245.316L176.226 243.038L176.02 242.025V238.734L176.433 237.468Z" fill="#C2CDD3"/>
<path d="M328.46 324.304L329.08 324.557L328.666 326.076L327.632 327.595L326.598 327.848L325.978 328.608L325.357 330.38L324.323 330.633L324.116 332.658H323.495L323.702 333.671L323.289 333.924V333.165L321.634 334.43V336.456L320.807 337.215H319.979L319.566 338.481L318.324 338.228L318.118 339.747L317.083 340H316.67L316.463 341.013L316.256 340.506L316.877 338.734L317.911 338.228L318.738 336.456H319.152L319.566 335.443L321.013 334.177L321.841 332.658L322.254 332.405V331.139L323.289 329.62L325.15 328.861V328.354H325.564L325.978 327.342L327.632 326.582L328.046 326.076L328.46 324.304Z" fill="#C8D3D9"/>
<path d="M268.89 312.658L269.924 313.165L272.199 315.19L273.854 316.962V317.721L270.338 320L269.717 319.747L270.958 318.987V316.203L269.924 315.19H268.269L266.822 315.696L264.34 316.456H261.651L259.996 315.443L259.582 314.684H260.41L262.685 315.696H264.34L266.201 315.19L268.063 313.671L268.89 312.658Z" fill="#080B1D"/>
<path d="M198.979 302.025L199.599 302.785L199.806 303.544V312.405L198.565 312.658L197.531 311.899H197.324L197.531 309.114L197.944 305.063L198.151 304.81L198.358 302.785L198.979 302.025Z" fill="#C8D3D9"/>
<path d="M213.251 187.342L214.285 187.595L215.733 189.62L216.767 192.152L216.146 197.975L215.733 199.24L214.905 199.747L214.492 194.43V190.38L213.044 188.101L213.251 187.342Z" fill="#070A1C"/>
<path d="M276.75 142.278L278.405 142.532L279.439 143.797L279.646 145.823L279.025 147.089L277.784 148.101H276.336L275.509 146.076V144.304L275.923 143.038L276.75 142.278Z" fill="#9BB4C7"/>
<path d="M166.919 310.127L168.16 310.633L170.849 313.671L172.09 315.19L171.883 315.949L170.228 317.468L169.608 317.215V316.709L168.987 315.949V314.684L168.78 313.924L166.919 313.165H165.678L164.85 313.671L163.816 313.924L164.644 312.911L166.298 311.392L166.919 310.127Z" fill="#080B1D"/>
<path d="M199.392 120.506H200.427L201.461 121.772L203.529 122.785H206.839L209.321 121.772L210.562 121.013H212.423L211.803 121.772H211.389V122.278L209.527 123.544L207.252 125.316L206.632 126.076L205.597 125.57L202.909 123.544L200.013 121.519L199.392 120.506Z" fill="#CAD4DA"/>
<path d="M125.137 309.62L132.377 309.873L137.961 310.127L138.582 310.633L138.375 311.139L137.134 311.646H135.065L132.377 310.886L132.17 310.633H130.101L129.067 311.139L128.033 312.911L127.412 313.165L126.585 312.405H126.171L125.137 310.38V309.62Z" fill="#C8D3D9"/>
<path d="M130.929 298.734H132.377L133.618 299.494L135.066 300.76L135.893 302.532L136.1 304.051L135.893 304.304H132.79V303.797H132.377L132.17 302.785L132.377 301.519L131.549 300.506L130.515 300L130.308 299.241L130.929 298.734Z" fill="#C8D3D9"/>
<path d="M276.957 310.38L277.371 310.633L278.198 312.405L279.232 313.671V314.43L280.059 314.937L280.266 315.949L280.887 316.203L281.921 318.734V319.494H282.335V320L281.3 319.747L279.646 318.228L277.991 315.949L276.75 312.911V310.633L276.957 310.38Z" fill="#070B1D"/>
<path d="M306.328 302.025H307.362L307.569 312.658L308.603 314.177L309.017 314.43V314.937L308.19 314.684L307.362 314.177L306.948 313.165L306.121 312.658L305.914 311.392V304.304L306.328 302.025Z" fill="#070A1B"/>
<path d="M211.596 292.405H214.905L216.974 293.418L218.835 294.937V295.696L216.56 294.937L214.905 293.924L212.01 293.671L209.941 294.43L207.873 295.443L206.839 296.456L206.632 295.696L208.493 293.671L210.562 292.658L211.596 292.405Z" fill="#080B1D"/>
<path d="M128.86 292.405H132.584L135.272 293.418L136.927 294.684L136.513 294.937L135.893 294.684V294.177H135.479L135.272 294.684L134.652 294.177V293.671H132.997L132.17 293.418H126.999V294.177H125.758L125.137 294.937L124.31 296.203L123.483 296.962H123.069L122.862 297.468L121.621 297.722L122.035 296.709L123.483 294.937L126.378 293.165L128.86 292.405Z" fill="#080C1E"/>
<path d="M231.452 206.329L232.28 206.582L231.452 207.089V207.595L230.418 208.354L229.384 208.861L229.177 209.367L228.35 209.62V209.114L227.109 210.633L226.075 210.886L225.868 211.392L225.04 211.646L224.834 212.405L223.593 212.658L223.386 213.418H221.938L221.731 214.43L220.283 215.19L219.249 215.443L219.042 216.456L218.628 216.203L217.801 216.456L218.008 215.696L223.386 211.899L228.557 208.354L231.452 206.329Z" fill="#090D1F"/>
<path d="M200.013 292.658L205.598 292.911L205.804 293.165V294.684L204.977 295.696L204.15 295.443L203.116 294.937L201.254 295.19L200.633 294.684L200.22 293.418L200.013 292.658Z" fill="#080B1D"/>
<path d="M89.561 143.291H90.8021L91.4226 144.051V146.835L90.3884 147.848L89.7679 148.101L88.7337 147.089L88.5269 146.582V144.304L89.561 143.291Z" fill="#BCC9D2"/>
<path d="M301.777 312.152L302.191 312.405V312.911H302.605L303.432 314.684V315.443L304.053 315.696L304.88 317.722L304.673 318.987H303.639L301.984 316.203L301.364 314.177V312.405L301.777 312.152Z" fill="#070B1D"/>
<path d="M165.885 121.519L166.298 121.772L164.23 123.544L161.748 125.823L161.127 126.582L159.679 125.063L159.886 123.544L161.127 123.291L162.989 122.785L164.85 121.772L165.885 121.519Z" fill="#CAD4DA"/>
<path d="M118.932 301.266H119.139L118.932 303.797L118.725 305.57H118.312V308.861L117.071 309.367L116.864 302.785L118.312 302.278L118.932 301.266Z" fill="#C8D3D9"/>
<path d="M226.281 293.165H230.625L232.073 293.418V294.684L231.246 295.443L229.798 294.937H227.523L226.281 295.696V293.165Z" fill="#070B1C"/>
<path d="M137.134 312.658L137.961 312.911L140.444 315.696L141.685 316.962L141.478 317.721L140.237 318.734H139.616V318.228L138.996 317.975L138.582 315.949V315.19H138.168L137.548 313.671L136.927 313.924V312.911L137.134 312.658Z" fill="#080B1D"/>
<path d="M143.753 298.987H143.96L144.167 306.329L143.753 306.582L142.719 306.076L142.305 306.582L142.098 303.291L142.925 300.253L143.753 299.747V298.987Z" fill="#C8D3D9"/>
<path d="M127.412 299.747L128.653 300L129.274 301.013L127.826 303.291H127.206V303.797L125.758 304.051L125.137 303.291L125.344 302.025L126.792 300.253L127.412 299.747Z" fill="#C8D3D9"/>
<path d="M142.512 211.646L143.753 212.152L149.751 216.456L151.199 217.468L150.992 218.481L149.958 217.722L148.51 216.962L147.476 216.456V215.949L146.442 215.696L145.614 214.937L143.546 213.418L142.305 212.152L142.512 211.646Z" fill="#080C1F"/>
<path d="M175.606 175.949L176.847 176.456L180.57 178.734V183.038L179.95 182.785L179.122 180.253L178.088 178.987L176.02 176.962L175.606 175.949Z" fill="#CAD4DA"/>
<path d="M110.865 99.4937L111.279 99.7468L109.624 101.013L109.418 103.291L110.452 105.316L109.211 105.063L107.556 103.038L106.108 100.253H106.729L107.349 100.759L109.004 100.506L110.865 99.4937Z" fill="#C4CFD6"/>
<path d="M181.191 54.1772L181.811 54.4304L180.777 55.1899L181.191 57.2152L181.604 57.4684L181.811 58.7342L183.052 59.2405V59.4937H181.811L179.536 57.7215L178.502 56.4557V55.9494L179.95 55.443V54.9367L181.191 54.1772Z" fill="#C5D0D6"/>
<path d="M186.775 299.747H187.809L189.464 301.266L190.498 302.785L190.705 304.81L189.878 305.063L188.637 302.785L187.603 301.519L186.775 300.253V299.747Z" fill="#C8D3D9"/>
<path d="M90.3885 297.215L91.6295 299.24L92.8706 299.494V300.253L88.1133 300L88.3201 298.734L88.7338 297.975L89.9748 297.468L90.3885 297.215Z" fill="#131B34"/>
<path d="M265.788 299.747L266.615 300L267.649 301.266V303.291L267.442 304.051L267.029 304.304H265.788V299.747Z" fill="#C8D3D9"/>
<path d="M153.681 311.899L155.956 313.418L158.438 314.43L161.955 314.684L161.748 315.19L160.093 315.443H158.025L155.543 314.43L153.267 312.405L153.681 311.899Z" fill="#080C1E"/>
<path d="M248 100.506L248.62 100.759L249.654 100.506L249.861 101.519L250.895 103.797L252.136 105.063L251.309 105.316L249.447 103.797L248 101.772L247.793 100.759L248 100.506Z" fill="#C2CCD2"/>
<path d="M138.582 296.709H138.996L140.857 300L141.684 302.025L141.891 303.038V305.063H141.478L140.65 301.013H140.03V300.506H139.616L139.202 299.494L138.996 298.228L138.375 296.962L138.582 296.709Z" fill="#080C1E"/>
<path d="M254.205 196.709L254.825 196.962L252.55 198.228L250.895 198.734L250.688 200.506L251.102 201.772L250.895 202.278L250.068 202.025L248.413 200V199.747L249.861 199.494L250.275 198.481L250.895 197.975L253.791 196.962L254.205 196.709Z" fill="#C5D0D7"/>
<path d="M159.679 165.063L160.714 165.316V165.823H161.127L161.334 166.835L160.507 167.342H158.645L157.404 168.101L156.784 167.848L157.197 166.835L159.679 165.063Z" fill="#CAD4DA"/>
<path d="M259.789 300.506L260.203 300.759L259.996 302.532L258.755 303.797L257.928 304.051L257.721 303.544L257.307 303.797V302.532L258.341 301.013L259.789 300.506Z" fill="#C8D3D9"/>
<path d="M211.596 130.38L212.01 130.633L210.768 132.405L209.941 134.684L209.321 136.709H209.114V131.646L210.768 130.633L211.596 130.38Z" fill="#CAD4DA"/>
<path d="M199.806 97.2152H200.22L201.254 100.253L202.909 103.038L202.702 104.051H202.288L201.668 102.278L200.427 101.519L200.013 100.759L199.392 97.9747L199.806 97.2152Z" fill="#16203E"/>
<path d="M114.382 314.937L115.209 315.443L116.657 316.962L116.036 317.721L114.589 318.734L114.175 318.481L113.968 315.443L114.382 314.937Z" fill="#080B1D"/>
<path d="M219.456 76.2025L220.697 76.4557V76.962L222.145 77.2152L222.558 77.7215L223.593 78.7342V79.2405L224.834 79.4937L226.488 80.7595V81.2658L227.729 81.519L227.523 82.0253L226.281 81.519L220.904 77.7215L219.456 76.4557V76.2025Z" fill="#0A0E21"/>
<path d="M100.937 311.646L101.558 311.899L102.592 313.418L104.247 314.684L106.315 315.696L105.488 315.949L103.419 315.19L102.178 314.177L101.765 314.43V313.924L100.937 313.418L100.73 312.152L100.937 311.646Z" fill="#090D1F"/>
<path d="M65.1541 306.582H71.5661L73.8413 307.089V307.342H68.4635L64.9473 307.089L65.1541 306.582Z" fill="#131B34"/>
<path d="M172.09 310.127L172.917 310.38L173.331 312.152L173.124 313.165L171.883 312.911L171.055 311.899L171.469 310.886L172.09 310.127Z" fill="#C8D3D9"/>
<path d="M109.211 300.759L110.038 301.266L110.452 302.025L110.245 304.304H108.797V301.266L109.211 300.759Z" fill="#C8D3D9"/>
<path d="M259.789 314.43L260.823 314.937L262.685 315.696H264.34L266.615 315.19V315.696L265.581 316.203L264.34 316.456H261.651L259.996 315.443L259.582 314.684L259.789 314.43Z" fill="#090D1F"/>
<path d="M93.2842 140.253L94.9389 141.266L95.7662 143.544V144.81L95.3526 145.063V144.557H94.9389L94.3184 142.785L93.9047 141.519H93.491L93.2842 140.253Z" fill="#070A1B"/>
<path d="M187.809 177.975H188.637L188.43 179.241L187.396 180.76H186.982L186.775 181.519L186.568 178.734L187.809 177.975Z" fill="#CAD4DA"/>
<path d="M168.78 292.658L169.401 292.911L168.78 294.177L168.16 295.19L167.332 294.684L166.505 293.671H167.332V293.165L168.78 292.658Z" fill="#080B1D"/>
<path d="M274.682 304.304L275.716 304.557V309.62L275.095 309.873L274.682 305.823V304.304Z" fill="#C8D3D9"/>
<path d="M212.423 192.658L212.63 193.165H213.044L213.251 194.684L212.837 197.215L212.423 197.975L212.01 197.722L212.216 195.949V192.911L212.423 192.658Z" fill="#080B1D"/>
<path d="M281.714 305.316H281.921L282.335 309.114L282.541 310.38L281.714 310.127L280.887 308.608L281.094 307.342V306.582H281.507L281.714 305.316Z" fill="#080B1D"/>
<path d="M165.678 94.1772L166.091 94.6835V95.9494H166.505L166.298 98.2278L165.678 99.7468L165.264 99.4937L165.678 94.1772Z" fill="#070A1B"/>
<path d="M206.425 165.57L207.252 165.823L207.459 166.582L207.252 167.089L205.598 167.342L204.77 166.835L204.977 166.076L206.425 165.57Z" fill="#CAD4DA"/>
<path d="M199.599 196.456L200.013 196.709L201.047 200.253L201.254 201.519L200.633 201.266L200.22 200L199.392 198.734L199.599 196.456Z" fill="#E6EAEB"/>
<path d="M170.435 148.354H170.849L171.262 150.38L171.055 152.658H170.642L170.228 151.646V148.861L170.435 148.354Z" fill="#CBD6DC"/>
<path d="M125.344 178.734L126.792 178.987L126.999 180L125.758 181.013L124.93 180V178.987L125.344 178.734Z" fill="#CAD4DA"/>
<path d="M155.75 130.886L156.991 131.392L158.232 132.152L158.025 134.43L156.577 132.658L156.37 131.646L155.75 130.886Z" fill="#CAD4DA"/>
<path d="M186.362 42.0253L187.396 42.2785L188.223 43.038L188.43 44.3038L187.809 44.557L187.396 46.3291H187.189L186.982 43.038L186.775 42.2785L186.362 42.0253Z" fill="#C3CED4"/>
<path d="M165.678 90.3797H166.091L166.505 91.3924L166.298 93.924H165.678L165.264 91.6456L165.057 90.8861L165.678 90.3797Z" fill="#080C1E"/>
<path d="M152.026 218.481L153.061 218.734L154.508 219.747V220.506L154.922 220.759L153.474 220.506V220L152.647 219.747L151.82 219.241L152.026 218.481Z" fill="#080C1E"/>
<path d="M142.098 140L142.925 140.253L143.546 141.772V142.785H142.512L142.098 141.519V140Z" fill="#080B1D"/>
<path d="M128.033 314.43L130.101 315.19L132.997 315.696V315.949L131.549 316.203L128.447 315.443L127.826 314.684L128.033 314.43Z" fill="#090C1F"/>
<path d="M59.9832 294.43L60.3969 295.443V299.24H59.9832L59.7764 297.975L59.9832 297.468L59.7764 295.19L59.9832 294.43Z" fill="#070A1B"/>
<path d="M187.396 233.165L188.43 233.924L189.05 234.684V235.443L188.223 235.696L187.809 237.215L187.603 236.456L187.809 233.671H187.396V233.165Z" fill="#BBC3C9"/>
<path d="M129.895 186.329L130.308 186.835L129.067 188.608H128.654L128.447 187.089L129.895 186.329Z" fill="#CAD4DA"/>
<path d="M267.649 301.772L268.063 302.278L268.27 304.304L267.856 304.557H265.581V304.304L267.442 304.051L267.649 301.772Z" fill="#B2B5B7"/>
<path d="M110.452 302.785L110.866 303.291V304.557H105.695V304.304H110.245V303.038L110.452 302.785Z" fill="#ACB9C3"/>
<path d="M214.905 118.228H216.146V118.734L214.285 120L213.664 119.747V119.24L214.905 118.228Z" fill="#CAD4DA"/>
<path d="M139.202 118.987L140.443 119.494L143.132 121.266L144.167 122.278L143.132 122.025L139.202 119.24V118.987Z" fill="#0A0E22"/>
<path d="M215.319 93.924L215.733 94.9367V97.2152L214.905 96.7089L214.698 94.9367L215.319 93.924Z" fill="#070A1B"/>
<path d="M128.861 199.747L129.274 200.506V201.772L129.481 202.278L128.447 202.025L128.033 201.772L128.24 200.506L128.861 199.747Z" fill="#CAD4DA"/>
<path d="M285.437 314.177L287.299 314.684L289.367 314.937V315.19L287.092 315.443L285.644 314.937L285.437 314.177Z" fill="#080C1E"/>
<path d="M124.931 302.785L125.137 303.291L125.551 303.544L125.965 304.051L128.033 304.304V304.557H125.551L124.517 304.304L124.931 302.785Z" fill="#ADB0B1"/>
<path d="M100.317 309.114L105.695 309.62V309.873H101.971L100.524 309.62L100.317 310.38L100.11 309.367L100.317 309.114Z" fill="#A2A2A2"/>
<path d="M209.114 155.696L209.941 156.962V158.481H209.114V155.696Z" fill="#CAD4DA"/>
<path d="M179.329 42.2785L179.743 42.5316L176.847 46.0759L177.261 44.8101L178.502 43.038L179.329 42.2785Z" fill="#C1C5C7"/>
<path d="M262.271 309.114H263.719V309.873H259.996V309.62H262.271V309.114Z" fill="#131B34"/>
<path d="M199.392 120.506H200.427L202.081 122.532H201.461L200.013 121.519L199.392 120.506Z" fill="#E3E7E9"/>
<path d="M103.419 314.684L104.867 314.937L106.315 315.696L105.488 315.949L103.419 315.19V314.684Z" fill="#080C1E"/>
<path d="M247.586 320L247.999 320.253V322.278H246.758L246.552 321.772L247.379 321.519L247.586 320Z" fill="#090D20"/>
<path d="M137.134 312.658L137.961 312.911L138.582 313.671L138.375 314.177L137.341 313.671H136.72L137.134 312.658Z" fill="#0C1126"/>
<path d="M258.341 308.608H259.375L260.203 309.367L257.721 309.62V308.861L258.341 308.608Z" fill="#121932"/>
<path d="M227.523 142.785H227.936L227.729 146.076H227.316L227.109 144.557L227.523 142.785Z" fill="#B9BEC1"/>
<path d="M164.437 88.3544L165.264 88.8608L165.471 89.6203L165.057 90.1266L164.23 89.6203L164.437 88.3544Z" fill="#070B1C"/>
<path d="M226.488 43.5443L228.35 43.7975L228.557 44.3038H226.074V43.7975L226.488 43.5443Z" fill="#0A0E21"/>
<path d="M179.122 233.671L179.536 233.924L177.261 236.709V235.949L178.088 234.684L179.122 233.671Z" fill="#C1C5C8"/>
<path d="M221.938 212.911L222.352 213.165L221.731 214.43H220.697L220.49 213.924L221.938 212.911Z" fill="#0A0E21"/>
<path d="M138.582 43.7975H140.443L140.857 44.3038L138.168 44.5569V44.0506L138.582 43.7975Z" fill="#080C1E"/>
</g>
<defs>
<clipPath id="clip0_106_165">
<rect width="369" height="400" fill="white"/>
</clipPath>
</defs>
</svg>
